<svg width="676" height="754" viewBox="0 0 676 754" fill="none" xmlns="http://www.w3.org/2000/svg">
<circle cx="348.5" cy="426.189" r="297.5" stroke="#FFBF75" stroke-opacity="0.7" stroke-width="60"/>
<circle cx="327.5" cy="426.189" r="297.5" stroke="#684DEC" stroke-opacity="0.7" stroke-width="60"/>
<path d="M401.395 294.689C400.245 310.781 399 326.375 399 342.582" stroke="#FFBF75" stroke-opacity="0.7" stroke-width="40" stroke-linecap="round"/>
<path d="M248.395 294.689C247.245 310.781 246 326.375 246 342.582" stroke="#FFBF75" stroke-opacity="0.7" stroke-width="40" stroke-linecap="round"/>
<path d="M248 518.964C266.735 531.051 285.479 547.844 308.93 548.897C329.531 549.821 344.47 545.647 362.211 533.864C375.423 525.088 385.6 516.43 396.401 504.862C408.688 491.701 414.812 477.657 424.006 462.689" stroke="#FFBF75" stroke-opacity="0.7" stroke-width="40" stroke-linecap="round"/>
<path d="M78.4866 158.395C70.0111 146.212 64.6841 134.026 53.7734 123.797" stroke="#FFBF75" stroke-opacity="0.7" stroke-width="40" stroke-linecap="round"/>
<path d="M137.798 116.381C128.929 101.107 115.763 89.4263 106.906 74.3691" stroke="#FFBF75" stroke-opacity="0.7" stroke-width="40" stroke-linecap="round"/>
<path d="M213.174 84.2556C210.913 64.9088 202.874 47.8838 195.875 29.8867" stroke="#FFBF75" stroke-opacity="0.7" stroke-width="40" stroke-linecap="round"/>
<path d="M303.374 65.7193C297.653 51.4174 298.4 35.0537 297.195 20" stroke="#FFBF75" stroke-opacity="0.7" stroke-width="40" stroke-linecap="round"/>
<path d="M391.109 73.134C393.61 56.8793 396.451 40.3554 402.23 24.9434" stroke="#FFBF75" stroke-opacity="0.7" stroke-width="40" stroke-linecap="round"/>
<path d="M481.305 92.904C495.419 77.6138 503.642 57.1519 512.196 38.5352" stroke="#FFBF75" stroke-opacity="0.7" stroke-width="40" stroke-linecap="round"/>
</svg>
