<svg width="1080" height="1080" viewBox="0 0 1080 1080" fill="none" xmlns="http://www.w3.org/2000/svg">
<rect width="1080" height="1080" fill="#FCFCFC"/>
<circle cx="550.5" cy="579.189" r="297.5" stroke="#FFBF75" stroke-opacity="0.7" stroke-width="60"/>
<circle cx="529.5" cy="579.189" r="297.5" stroke="#684DEC" stroke-opacity="0.7" stroke-width="60"/>
<path d="M603.395 447.689C602.245 463.781 601 479.375 601 495.582" stroke="#FFBF75" stroke-opacity="0.7" stroke-width="40" stroke-linecap="round"/>
<path d="M450.395 447.689C449.245 463.781 448 479.375 448 495.582" stroke="#FFBF75" stroke-opacity="0.7" stroke-width="40" stroke-linecap="round"/>
<path d="M450 671.964C468.735 684.051 487.479 700.844 510.93 701.897C531.531 702.821 546.47 698.647 564.211 686.864C577.423 678.088 587.6 669.43 598.401 657.862C610.688 644.701 616.812 630.657 626.006 615.689" stroke="#FFBF75" stroke-opacity="0.7" stroke-width="40" stroke-linecap="round"/>
<path d="M280.487 311.395C272.011 299.212 266.684 287.026 255.773 276.797" stroke="#FFBF75" stroke-opacity="0.7" stroke-width="40" stroke-linecap="round"/>
<path d="M339.798 269.381C330.929 254.107 317.763 242.426 308.906 227.369" stroke="#FFBF75" stroke-opacity="0.7" stroke-width="40" stroke-linecap="round"/>
<path d="M415.174 237.256C412.913 217.909 404.874 200.884 397.875 182.887" stroke="#FFBF75" stroke-opacity="0.7" stroke-width="40" stroke-linecap="round"/>
<path d="M505.374 218.719C499.653 204.417 500.4 188.054 499.195 173" stroke="#FFBF75" stroke-opacity="0.7" stroke-width="40" stroke-linecap="round"/>
<path d="M593.109 226.134C595.61 209.879 598.451 193.355 604.23 177.943" stroke="#FFBF75" stroke-opacity="0.7" stroke-width="40" stroke-linecap="round"/>
<path d="M683.305 245.904C697.419 230.614 705.642 210.152 714.196 191.535" stroke="#FFBF75" stroke-opacity="0.7" stroke-width="40" stroke-linecap="round"/>
<path d="M758.68 286.682C771.731 278.329 782.384 265.449 793.278 254.555" stroke="#FFBF75" stroke-opacity="0.7" stroke-width="40" stroke-linecap="round"/>
</svg>
